<?xml version="1.0" standalone="no"?>
<!DOCTYPE svg PUBLIC "-//W3C//DTD SVG 20010904//EN"
 "http://www.w3.org/TR/2001/REC-SVG-20010904/DTD/svg10.dtd">
<svg version="1.0" xmlns="http://www.w3.org/2000/svg"
 width="700.000000pt" height="700.000000pt" viewBox="0 0 700.000000 700.000000"
 preserveAspectRatio="xMidYMid meet">
<metadata>
Created by potrace 1.14, written by Peter Selinger 2001-2017
</metadata>
<g transform="translate(0.000000,700.000000) scale(0.100000,-0.100000)"
fill="#000000" stroke="none">
<path d="M0 5892 l0 -1107 383 0 382 0 0 720 c0 555 3 721 12 725 7 3 332 5
723 4 390 0 711 2 711 5 1 3 2 176 3 384 l1 377 -1107 0 -1108 0 0 -1108z"/>
<path d="M4787 6993 c-3 -7 -2 -721 2 -748 1 -7 238 -11 723 -11 l722 0 1
-724 0 -725 380 0 380 0 3 1108 2 1107 -1104 0 c-608 0 -1107 -3 -1109 -7z"/>
<path d="M3408 4975 c-2 -1 -32 -5 -68 -9 -621 -60 -1157 -544 -1285 -1161
-47 -230 -38 -494 24 -706 77 -259 189 -448 381 -640 222 -223 470 -353 785
-414 56 -10 180 -19 270 -19 622 3 1180 405 1381 997 32 93 39 119 49 177 2
14 6 34 9 46 31 147 27 374 -10 568 -34 178 -146 418 -271 581 -235 305 -569
504 -950 565 -62 10 -307 21 -315 15z m307 -798 c113 -37 198 -90 285 -177 87
-87 139 -172 177 -285 23 -70 27 -97 27 -210 0 -97 -4 -145 -17 -190 -72 -240
-240 -415 -472 -492 -71 -24 -95 -27 -215 -27 -119 0 -144 3 -213 26 -213 71
-387 240 -458 446 -30 87 -34 117 -33 247 0 108 3 129 31 208 85 241 259 402
504 467 108 28 275 22 384 -13z"/>
<path d="M0 1108 l0 -1108 1108 0 1107 0 0 382 0 383 -717 1 c-395 0 -721 4
-725 8 -4 4 -7 330 -8 724 l0 717 -382 0 -383 0 0 -1107z"/>
<path d="M6241 2210 c-4 -3 -7 -326 -7 -718 1 -393 -1 -717 -4 -720 -3 -4
-329 -7 -725 -7 l-720 0 0 -382 0 -383 1107 0 1108 0 0 1108 0 1107 -376 0
c-207 0 -379 -2 -383 -5z"/>
</g>
</svg>
